#!OML:ASF X:\für Bonn\!DataBase\2005_08_12_Daniel\c3d\Daniel.ASF
:FULLY-SPECIFIED
:DEGREES
1203
root 11.8009 17.0566 24.1145 -5.4448 225.368 1.96571
lowerback 14.5104 -3.40286 6.07956
upperback 3.62145 -3.86071 1.76045
thorax -4.53519 -2.09886 -0.848875
lowerneck 0.955018 -8.11279 -9.94584
upperneck 9.52044 -12.4086 12.5086
head 4.06412 -6.23258 4.91728
rclavicle 2.00773e-014 -2.94201e-014
rhumerus -36.001 -10.5597 -82.3878
rradius 26.8154
rwrist 13.0173
rhand -19.6703 16.7109
rfingers 7.12502
rthumb 6.65807 -13.1645
lclavicle 2.00773e-014 -2.94201e-014
lhumerus -36.0503 30.4029 76.468
lradius 23.2474
lwrist -27.5602
lhand -12.1551 -5.9835
lfingers 7.12502
lthumb 13.9076 23.5314
rfemur -14.7463 2.87189 30.5058
rtibia 38.3578
rfoot -18.8187 4.76707
rtoes -0.586376
lfemur -13.0352 6.76803 -11.0003
ltibia 77.9277
lfoot -5.98778 -7.12959
ltoes -11.7875
1204
root 11.6906 17.072 23.9754 -5.33364 225.025 1.62381
lowerback 14.4783 -3.25244 5.71686
upperback 3.63803 -3.71889 1.64909
thorax -4.47865 -2.02287 -0.794354
lowerneck 1.03947 -8.09552 -10.0461
upperneck 9.54132 -12.4187 12.6627
head 4.07263 -6.24204 4.98383
rclavicle 6.95746e-015 -2.14687e-014
rhumerus -35.8356 -8.90225 -83.3865
rradius 28.2399
rwrist 11.4382
rhand -19.7064 16.6794
rfingers 7.12502
rthumb 6.62326 -13.197
lclavicle 6.95746e-015 -2.14687e-014
lhumerus -36.54 31.3774 75.4878
lradius 23.199
lwrist -27.8292
lhand -12.1014 -5.88497
lfingers 7.12502
lthumb 13.9593 23.6264
rfemur -13.7104 3.10643 30.4178
rtibia 38.034
rfoot -19.1193 4.88015
rtoes -0.574834
lfemur -14.1816 6.49319 -11.4015
ltibia 77.7872
lfoot -6.29461 -6.9575
ltoes -8.45072
1205
root 11.5801 17.0881 23.8377 -5.24844 224.714 1.34499
lowerback 14.4273 -3.12282 5.39459
upperback 3.6556 -3.59956 1.57635
thorax -4.41263 -1.95894 -0.717852
lowerneck 1.10382 -8.06684 -10.1038
upperneck 9.53797 -12.3892 12.6949
head 4.06268 -6.23195 5.00817
rclavicle 6.36111e-014 -2.22639e-014
rhumerus -35.6449 -7.52146 -84.2062
rradius 29.5942
rwrist 10.127
rhand -19.7485 16.6602
rfingers 7.12502
rthumb 6.58258 -13.2175
lclavicle 6.36111e-014 -2.22639e-014
lhumerus -37.0959 32.3415 74.5673
lradius 23.2459
lwrist -28.1471
lhand -12.0966 -5.82359
lfingers 7.12502
lthumb 13.9639 23.6875
rfemur -12.6871 3.35559 30.3714
rtibia 37.6897
rfoot -19.4388 4.94191
rtoes -0.589601
lfemur -15.3396 6.17923 -11.77
ltibia 77.4954
lfoot -6.67417 -6.81961
ltoes -5.98965
1206
root 11.4691 17.1054 23.6985 -5.08817 224.354 1.0073
lowerback 14.3361 -2.96527 5.05722
upperback 3.63777 -3.44309 1.47358
thorax -4.36257 -1.87555 -0.671674
lowerneck 1.32261 -8.01948 -10.2661
upperneck 9.47051 -12.3654 12.908
head 4.02531 -6.2317 5.11298
rclavicle 9.06458e-014 -2.38542e-015
rhumerus -35.5451 -6.34538 -84.9066
rradius 30.9133
rwrist 9.00333
rhand -19.6753 16.7869
rfingers 7.12502
rthumb 6.65331 -13.0886
lclavicle 9.06458e-014 -2.38542e-015
lhumerus -37.6939 33.185 73.6191
lradius 23.2889
lwrist -28.3961
lhand -12.0292 -5.80137
lfingers 7.12502
lthumb 14.0288 23.7052
rfemur -11.6825 3.64326 30.2777
rtibia 37.3303
rfoot -19.7233 4.99677
rtoes -0.508259
lfemur -16.4257 5.77494 -12.2346
ltibia 77.024
lfoot -7.20587 -6.52569
ltoes -4.04036
1207
root 11.3592 17.1197 23.5604 -4.91707 224.005 0.658892
lowerback 14.2286 -2.83019 4.69945
upperback 3.64168 -3.32236 1.36099
thorax -4.28284 -1.80967 -0.618518
lowerneck 1.41219 -7.96783 -10.342
upperneck 9.48632 -12.3168 12.9815
head 4.01787 -6.21362 5.15548
rclavicle 4.90004e-014 -2.14687e-014
rhumerus -35.3628 -5.23879 -85.5686
rradius 32.1794
rwrist 7.89232
rhand -19.4364 16.9318
rfingers 7.12502
rthumb 6.88393 -12.9363
lclavicle 4.90004e-014 -2.14687e-014
lhumerus -38.3036 33.9244 72.6595
lradius 23.3722
lwrist -28.6421
lhand -11.975 -5.79255
lfingers 7.12502
lthumb 14.0811 23.7104
rfemur -10.6912 3.99586 30.1893
rtibia 36.9784
rfoot -20.0278 5.00666
rtoes -0.371226
lfemur -17.4883 5.29971 -12.724
ltibia 76.4225
lfoot -7.90706 -6.18631
ltoes -2.87625
1208
root 11.249 17.1322 23.4228 -4.79303 223.631 0.335112
lowerback 14.1851 -2.66916 4.36173
upperback 3.62866 -3.15873 1.27268
thorax -4.25419 -1.72405 -0.554305
lowerneck 1.52382 -7.91597 -10.4877
upperneck 9.4668 -12.2723 13.1225
head 4.00482 -6.19902 5.2312
rclavicle -8.52786e-014 2.38542e-014
rhumerus -35.2259 -4.18115 -86.1243
rradius 33.3985
rwrist 6.8402
rhand -19.2601 17.0861
rfingers 7.12502
rthumb 7.05404 -12.7764
lclavicle -8.52786e-014 2.38542e-014
lhumerus -38.9457 34.5306 71.8195
lradius 23.5427
lwrist -28.8003
lhand -11.7852 -5.74676
lfingers 7.12502
lthumb 14.2639 23.7434
rfemur -9.67356 4.40109 30.1171
rtibia 36.6599
rfoot -20.3483 5.00143
rtoes -0.2951
lfemur -18.4794 4.85115 -13.197
ltibia 75.7076
lfoot -8.74425 -5.76499
ltoes -2.30626
1209
root 11.1389 17.1417 23.2866 -4.65565 223.284 -0.00298858
lowerback 14.1418 -2.53983 3.97323
upperback 3.62631 -3.04502 1.19886
thorax -4.2143 -1.66307 -0.437152
lowerneck 1.59838 -7.85309 -10.6415
upperneck 9.44607 -12.2075 13.2604
head 3.99528 -6.17297 5.307
rclavicle -1.40044e-013 1.59028e-014
rhumerus -34.9948 -3.18429 -86.631
rradius 34.4819
rwrist 5.90485
rhand -19.0536 17.297
rfingers 7.12502
rthumb 7.25337 -12.5587
lclavicle -1.40044e-013 1.59028e-014
lhumerus -39.5629 35.1447 70.9767
lradius 23.6282
lwrist -28.9791
lhand -11.7809 -5.84169
lfingers 7.12502
lthumb 14.2681 23.6481
rfemur -8.68613 4.79362 30.0324
rtibia 36.3672
rfoot -20.6416 4.98485
rtoes 0.0437935
lfemur -19.4631 4.30796 -13.7051
ltibia 74.8862
lfoot -9.6426 -5.28321
ltoes -1.97949
